<mxfile host="Electron" agent="Mozilla/5.0 (Macintosh; Intel Mac OS X 10_15_7) AppleWebKit/537.36 (KHTML, like Gecko) draw.io/24.7.5 Chrome/126.0.6478.183 Electron/31.3.0 Safari/537.36" version="24.7.5">
  <diagram name="Page-1" id="VLJDBwGc8tw-kBL-8N2p">
    <mxGraphModel dx="2560" dy="2358" grid="1" gridSize="10" guides="1" tooltips="1" connect="1" arrows="1" fold="1" page="1" pageScale="1" pageWidth="827" pageHeight="1169" math="0" shadow="0">
      <root>
        <mxCell id="0" />
        <mxCell id="1" parent="0" />
        <mxCell id="x328PwAZrwwHZPL1ipOy-11" value="&lt;font style=&quot;font-size: 15px;&quot;&gt;&lt;font style=&quot;font-size: 15px;&quot;&gt;Objective three:&amp;nbsp;&lt;span style=&quot;font-family: sans-serif; font-size: 15.0827px; white-space: pre;&quot;&gt;Determine the &lt;/span&gt;&lt;/font&gt;&lt;/font&gt;&lt;div&gt;&lt;font style=&quot;font-size: 15px;&quot;&gt;&lt;font style=&quot;font-size: 15px;&quot;&gt;&lt;span style=&quot;font-family: sans-serif; font-size: 15.0827px; white-space: pre;&quot;&gt;correlation &lt;/span&gt;&lt;/font&gt;&lt;/font&gt;&lt;span style=&quot;font-family: sans-serif; font-size: 15.0827px; white-space: pre;&quot;&gt;between the &lt;/span&gt;&lt;span style=&quot;font-family: sans-serif; font-size: 15.0827px; white-space: pre;&quot;&gt;ESG &lt;/span&gt;&lt;span style=&quot;font-family: sans-serif; font-size: 15.0827px; white-space: pre;&quot;&gt;rating &lt;/span&gt;&lt;/div&gt;&lt;div&gt;&lt;span style=&quot;font-family: sans-serif; font-size: 15.0827px; white-space: pre;&quot;&gt;system and &lt;/span&gt;&lt;span style=&quot;font-family: sans-serif; font-size: 15.0827px; white-space: pre;&quot;&gt;corporate greenwashing&lt;/span&gt;&lt;/div&gt;" style="rounded=0;whiteSpace=wrap;html=1;fontSize=15;verticalAlign=top;horizontal=1;labelBackgroundColor=default;align=left;dashed=1;fillColor=#dae8fc;spacingLeft=20;strokeColor=#6c8ebf;" parent="1" vertex="1">
          <mxGeometry x="490" y="170" width="390" height="370" as="geometry" />
        </mxCell>
        <mxCell id="x328PwAZrwwHZPL1ipOy-22" value="&lt;div style=&quot;font-size: 15px;&quot;&gt;&lt;span style=&quot;font-size: 15px;&quot;&gt;Objective one: H&lt;font face=&quot;sans-serif&quot;&gt;&lt;span style=&quot;white-space: pre;&quot;&gt;ow opinion mining &lt;/span&gt;&lt;/font&gt;&lt;/span&gt;&lt;span style=&quot;font-family: sans-serif; font-size: 15.0827px; white-space: pre;&quot;&gt;of news &lt;/span&gt;&lt;span style=&quot;font-family: sans-serif; font-size: 15.0827px; white-space: pre;&quot;&gt;can &lt;/span&gt;&lt;/div&gt;&lt;div style=&quot;font-size: 15px;&quot;&gt;&lt;span style=&quot;font-family: sans-serif; font-size: 15.0827px; white-space: pre;&quot;&gt;influence &lt;/span&gt;&lt;span style=&quot;font-family: sans-serif; font-size: 15.0827px; white-space: pre;&quot;&gt;stock prices and returns.&lt;/span&gt;&lt;font face=&quot;sans-serif&quot;&gt;&lt;span style=&quot;white-space: pre;&quot;&gt; &lt;/span&gt;&lt;/font&gt;&lt;/div&gt;" style="rounded=0;whiteSpace=wrap;html=1;verticalAlign=top;strokeWidth=1;dashed=1;fontSize=15;align=left;labelBackgroundColor=default;movable=1;resizable=1;rotatable=1;deletable=1;editable=1;locked=0;connectable=1;fillColor=#ffe6cc;spacingLeft=30;strokeColor=#d79b00;" parent="1" vertex="1">
          <mxGeometry x="-160" y="160" width="530" height="490" as="geometry" />
        </mxCell>
        <mxCell id="x328PwAZrwwHZPL1ipOy-7" value="&lt;span style=&quot;font-size: 15px;&quot;&gt;Greenwashing-related news:&lt;/span&gt;&lt;br style=&quot;font-size: 15px;&quot;&gt;&lt;ul style=&quot;font-size: 15px;&quot;&gt;&lt;li style=&quot;font-size: 15px;&quot;&gt;&lt;font style=&quot;font-size: 15px;&quot;&gt;NewsAPI&lt;/font&gt;&lt;/li&gt;&lt;li style=&quot;font-size: 15px;&quot;&gt;&lt;font style=&quot;font-size: 15px;&quot;&gt;Thomson Reuters (Eikon API)&lt;/font&gt;&lt;/li&gt;&lt;/ul&gt;" style="shape=document;whiteSpace=wrap;html=1;boundedLbl=1;align=left;fontSize=15;verticalAlign=top;rounded=0;fontColor=#000000;labelBackgroundColor=default;spacingLeft=4;" parent="1" vertex="1">
          <mxGeometry x="570" y="20" width="260" height="130" as="geometry" />
        </mxCell>
        <mxCell id="x328PwAZrwwHZPL1ipOy-20" value="&lt;span style=&quot;font-size: 15px;&quot;&gt;Stock Market Data:&lt;br style=&quot;font-size: 15px;&quot;&gt;&lt;/span&gt;&lt;ul style=&quot;font-size: 15px;&quot;&gt;&lt;li style=&quot;font-size: 15px;&quot;&gt;&lt;span style=&quot;font-size: 15px;&quot;&gt;Yahoo Finance&lt;/span&gt;&lt;/li&gt;&lt;li style=&quot;font-size: 15px;&quot;&gt;&lt;font style=&quot;font-size: 15px;&quot;&gt;Thomson Reuter (Eikon API)&lt;/font&gt;&lt;/li&gt;&lt;/ul&gt;" style="shape=document;whiteSpace=wrap;html=1;boundedLbl=1;align=left;size=0.3;fontSize=15;verticalAlign=top;rounded=0;fontColor=#000000;labelBackgroundColor=default;spacingLeft=4;" parent="1" vertex="1">
          <mxGeometry x="300" y="20" width="250" height="130" as="geometry" />
        </mxCell>
        <mxCell id="x328PwAZrwwHZPL1ipOy-73" style="edgeStyle=orthogonalEdgeStyle;orthogonalLoop=1;jettySize=auto;html=1;fontSize=15;" parent="1" source="x328PwAZrwwHZPL1ipOy-71" target="x328PwAZrwwHZPL1ipOy-72" edge="1">
          <mxGeometry relative="1" as="geometry" />
        </mxCell>
        <mxCell id="x328PwAZrwwHZPL1ipOy-71" value="&lt;font style=&quot;font-size: 15px;&quot;&gt;Start&lt;/font&gt;" style="strokeWidth=1;html=1;shape=mxgraph.flowchart.start_2;whiteSpace=wrap;fontSize=15;" parent="1" vertex="1">
          <mxGeometry x="550" y="-160" width="60" height="60" as="geometry" />
        </mxCell>
        <mxCell id="x328PwAZrwwHZPL1ipOy-72" value="&lt;font style=&quot;font-size: 15px;&quot;&gt;Data Collection&lt;/font&gt;" style="rounded=0;whiteSpace=wrap;html=1;fontSize=15;verticalAlign=middle;fontColor=#000000;labelBackgroundColor=default;" parent="1" vertex="1">
          <mxGeometry x="520" y="-70" width="120" height="30" as="geometry" />
        </mxCell>
        <mxCell id="x328PwAZrwwHZPL1ipOy-76" value="Company sustainability reports" style="shape=document;whiteSpace=wrap;html=1;boundedLbl=1;align=left;fontSize=15;verticalAlign=top;rounded=0;fontColor=#000000;labelBackgroundColor=default;spacingLeft=4;" parent="1" vertex="1">
          <mxGeometry x="840" y="20" width="190" height="130" as="geometry" />
        </mxCell>
        <mxCell id="x328PwAZrwwHZPL1ipOy-122" style="edgeStyle=orthogonalEdgeStyle;curved=0;rounded=0;jumpStyle=arc;jumpSize=15;orthogonalLoop=1;jettySize=auto;html=1;entryX=0;entryY=0.5;entryDx=0;entryDy=0;strokeColor=default;strokeWidth=1;align=center;verticalAlign=middle;fontFamily=Helvetica;fontSize=10;fontColor=#000000;labelBackgroundColor=default;endArrow=classic;" parent="1" source="x328PwAZrwwHZPL1ipOy-42" target="x328PwAZrwwHZPL1ipOy-61" edge="1">
          <mxGeometry relative="1" as="geometry">
            <Array as="points">
              <mxPoint x="140" y="340" />
              <mxPoint x="140" y="395" />
            </Array>
          </mxGeometry>
        </mxCell>
        <mxCell id="x328PwAZrwwHZPL1ipOy-42" value="&lt;span style=&quot;text-align: start; font-size: 15px;&quot;&gt;&lt;font style=&quot;font-size: 15px;&quot;&gt;Sentiment&amp;nbsp;&lt;/font&gt;&lt;/span&gt;&lt;div style=&quot;font-size: 15px;&quot;&gt;&lt;span style=&quot;text-align: start; font-size: 15px;&quot;&gt;&lt;font style=&quot;font-size: 15px;&quot;&gt;analysis&lt;/font&gt;&lt;/span&gt;&lt;div style=&quot;font-size: 15px;&quot;&gt;&lt;span style=&quot;text-align: start; font-size: 15px;&quot;&gt;&lt;font style=&quot;font-size: 15px;&quot;&gt;&amp;nbsp;using NLP of&amp;nbsp;&lt;/font&gt;&lt;/span&gt;&lt;/div&gt;&lt;div style=&quot;font-size: 15px;&quot;&gt;&lt;span style=&quot;text-align: start; font-size: 15px;&quot;&gt;&lt;font style=&quot;font-size: 15px;&quot;&gt;text data&lt;/font&gt;&lt;/span&gt;&lt;/div&gt;&lt;/div&gt;" style="verticalLabelPosition=middle;verticalAlign=middle;html=1;shape=hexagon;perimeter=hexagonPerimeter2;arcSize=6;size=0.18181818181818185;labelPosition=center;align=center;rounded=0;fontColor=#000000;labelBackgroundColor=default;fontSize=15;" parent="1" vertex="1">
          <mxGeometry x="-65" y="300" width="150" height="80" as="geometry" />
        </mxCell>
        <mxCell id="x328PwAZrwwHZPL1ipOy-27" value="&lt;span style=&quot;font-size: 15px;&quot;&gt;Daily stock prices and daily stock returns&amp;nbsp;&lt;/span&gt;&lt;div style=&quot;font-size: 15px;&quot;&gt;&lt;span style=&quot;font-size: 15px;&quot;&gt;time series&lt;/span&gt;&lt;/div&gt;" style="rounded=0;whiteSpace=wrap;html=1;fontSize=15;fontColor=#000000;labelBackgroundColor=default;spacingLeft=7;spacingRight=6;" parent="1" vertex="1">
          <mxGeometry x="100" y="231" width="190" height="90" as="geometry" />
        </mxCell>
        <mxCell id="x328PwAZrwwHZPL1ipOy-28" value="&lt;div style=&quot;font-size: 15px;&quot;&gt;&lt;font style=&quot;font-size: 15px;&quot;&gt;&lt;span style=&quot;font-size: 15px; letter-spacing: 0.32px;&quot;&gt;Daily sentiment&amp;nbsp;&lt;/span&gt;&lt;/font&gt;&lt;/div&gt;&lt;div style=&quot;font-size: 15px;&quot;&gt;&lt;font style=&quot;font-size: 15px;&quot;&gt;&lt;span style=&quot;font-size: 15px; letter-spacing: 0.32px;&quot;&gt;daily score&lt;/span&gt;&lt;/font&gt;&lt;/div&gt;&lt;div style=&quot;font-size: 15px;&quot;&gt;&lt;font style=&quot;font-size: 15px;&quot;&gt;&lt;span style=&quot;font-size: 15px; letter-spacing: 0.32px;&quot;&gt;daily composite score&lt;/span&gt;&lt;/font&gt;&lt;/div&gt;" style="rounded=0;whiteSpace=wrap;html=1;fontSize=15;fontColor=#000000;labelBackgroundColor=default;" parent="1" vertex="1">
          <mxGeometry x="-80" y="410" width="180" height="100" as="geometry" />
        </mxCell>
        <mxCell id="x328PwAZrwwHZPL1ipOy-30" value="&lt;div style=&quot;font-size: 15px;&quot;&gt;&lt;font face=&quot;Helvetica&quot; style=&quot;font-size: 15px;&quot;&gt;&lt;font style=&quot;font-size: 15px;&quot;&gt;&lt;span style=&quot;letter-spacing: 0.32px; font-size: 15px;&quot;&gt;Relationship&amp;nbsp;&lt;/span&gt;&lt;/font&gt;&lt;span style=&quot;font-size: 15px;&quot;&gt;between&amp;nbsp;&lt;/span&gt;&lt;/font&gt;&lt;/div&gt;&lt;div style=&quot;font-size: 15px;&quot;&gt;&lt;font style=&quot;font-size: 15px;&quot;&gt;&lt;font face=&quot;Helvetica&quot; style=&quot;font-size: 15px;&quot;&gt;&lt;span style=&quot;font-size: 15px;&quot;&gt;variation&amp;nbsp;&lt;/span&gt;&lt;/font&gt;&lt;font style=&quot;font-size: 15px;&quot; face=&quot;Helvetica&quot;&gt;and returns&amp;nbsp;&lt;/font&gt;of stock&amp;nbsp;&lt;/font&gt;&lt;/div&gt;&lt;div style=&quot;font-size: 15px;&quot;&gt;&lt;font style=&quot;font-size: 15px;&quot;&gt;prices (in %)&lt;font style=&quot;font-size: 15px;&quot; face=&quot;Helvetica&quot;&gt;,&amp;nbsp;&lt;/font&gt;&lt;/font&gt;&lt;font face=&quot;Helvetica&quot; style=&quot;font-size: 15px;&quot;&gt;and sentiment&amp;nbsp;&lt;/font&gt;&lt;/div&gt;&lt;div style=&quot;font-size: 15px;&quot;&gt;&lt;font face=&quot;Helvetica&quot; style=&quot;font-size: 15px;&quot;&gt;of&amp;nbsp;&lt;/font&gt;ESG-related news&lt;/div&gt;&#x9;&#x9;" style="verticalLabelPosition=middle;verticalAlign=middle;html=1;shape=hexagon;perimeter=hexagonPerimeter2;arcSize=6;size=0.18181818181818185;labelPosition=center;align=center;rounded=0;fontColor=#000000;labelBackgroundColor=default;fontSize=15;" parent="1" vertex="1">
          <mxGeometry x="-60" y="549" width="330" height="90" as="geometry" />
        </mxCell>
        <mxCell id="x328PwAZrwwHZPL1ipOy-60" value="&lt;span style=&quot;text-align: start; font-size: 15px;&quot;&gt;&lt;font style=&quot;font-size: 15px;&quot;&gt;Sentiment analysis&lt;/font&gt;&lt;/span&gt;&lt;div style=&quot;font-size: 15px;&quot;&gt;&lt;span style=&quot;text-align: start; font-size: 15px;&quot;&gt;&lt;font style=&quot;font-size: 15px;&quot;&gt;&amp;nbsp;using NLP of text data&lt;/font&gt;&lt;/span&gt;&lt;/div&gt;" style="verticalLabelPosition=middle;verticalAlign=middle;html=1;shape=hexagon;perimeter=hexagonPerimeter2;arcSize=6;size=0.18181818181818185;labelPosition=center;align=center;rounded=0;fontColor=#000000;labelBackgroundColor=default;fontSize=15;" parent="1" vertex="1">
          <mxGeometry x="530" y="250" width="200" height="70" as="geometry" />
        </mxCell>
        <mxCell id="x328PwAZrwwHZPL1ipOy-61" value="&lt;span style=&quot;white-space: pre; font-size: 15px;&quot;&gt;&lt;font style=&quot;font-size: 15px;&quot; face=&quot;Helvetica&quot;&gt;Granger&#39;s casuality &lt;/font&gt;&lt;/span&gt;&lt;div style=&quot;font-size: 15px;&quot;&gt;&lt;span style=&quot;white-space: pre; font-size: 15px;&quot;&gt;&lt;font style=&quot;font-size: 15px;&quot; face=&quot;Helvetica&quot;&gt;testing&lt;/font&gt;&lt;/span&gt;&lt;/div&gt;" style="verticalLabelPosition=middle;verticalAlign=middle;html=1;shape=hexagon;perimeter=hexagonPerimeter2;arcSize=6;size=0.18181818181818185;labelPosition=center;align=center;rounded=0;fontColor=#000000;labelBackgroundColor=default;fontSize=15;" parent="1" vertex="1">
          <mxGeometry x="544" y="370" width="186" height="50" as="geometry" />
        </mxCell>
        <mxCell id="x328PwAZrwwHZPL1ipOy-65" value="Influence of the greenwashing &#xa;disclosures over the &#xa;ESG-related news" style="verticalLabelPosition=middle;verticalAlign=middle;html=1;shape=mxgraph.basic.rect;fillColor2=none;strokeWidth=1;size=20;indent=5;labelPosition=center;align=center;spacing=0;spacingTop=0;spacingBottom=0;fontSize=15;" parent="1" vertex="1">
          <mxGeometry x="510" y="460" width="250" height="60" as="geometry" />
        </mxCell>
        <mxCell id="x328PwAZrwwHZPL1ipOy-91" style="edgeStyle=orthogonalEdgeStyle;orthogonalLoop=1;jettySize=auto;html=1;exitX=0.5;exitY=1;exitDx=0;exitDy=0;fontSize=15;" parent="1" edge="1">
          <mxGeometry relative="1" as="geometry">
            <mxPoint x="685" y="540" as="sourcePoint" />
            <mxPoint x="685" y="540" as="targetPoint" />
          </mxGeometry>
        </mxCell>
        <mxCell id="x328PwAZrwwHZPL1ipOy-120" style="edgeStyle=orthogonalEdgeStyle;curved=0;rounded=0;jumpStyle=arc;jumpSize=15;orthogonalLoop=1;jettySize=auto;html=1;entryX=0;entryY=0.5;entryDx=0;entryDy=0;strokeColor=default;strokeWidth=1;align=center;verticalAlign=middle;fontFamily=Helvetica;fontSize=10;fontColor=#000000;labelBackgroundColor=default;endArrow=classic;" parent="1" source="c09OnCcUlVke61fUeDF4-2" target="x328PwAZrwwHZPL1ipOy-42" edge="1">
          <mxGeometry relative="1" as="geometry">
            <Array as="points">
              <mxPoint x="-190" y="85" />
              <mxPoint x="-190" y="340" />
            </Array>
          </mxGeometry>
        </mxCell>
        <mxCell id="c09OnCcUlVke61fUeDF4-2" value="&lt;font style=&quot;font-size: 15px;&quot;&gt;ESG-related news:&lt;/font&gt;&lt;div style=&quot;font-size: 15px;&quot;&gt;&lt;ul style=&quot;font-size: 15px;&quot;&gt;&lt;li style=&quot;font-size: 15px;&quot;&gt;&lt;font style=&quot;font-size: 15px;&quot;&gt;NewsAPI&lt;/font&gt;&lt;/li&gt;&lt;li style=&quot;font-size: 15px;&quot;&gt;&lt;font style=&quot;font-size: 15px;&quot;&gt;Thomson Reuter (Eikon API)&lt;/font&gt;&lt;/li&gt;&lt;/ul&gt;&lt;/div&gt;" style="shape=document;whiteSpace=wrap;html=1;boundedLbl=1;align=left;fontSize=15;verticalAlign=top;rounded=0;fontColor=#000000;labelBackgroundColor=default;spacingLeft=4;" parent="1" vertex="1">
          <mxGeometry x="30" y="20" width="250" height="130" as="geometry" />
        </mxCell>
        <mxCell id="x328PwAZrwwHZPL1ipOy-118" style="edgeStyle=orthogonalEdgeStyle;curved=0;rounded=0;jumpStyle=arc;jumpSize=15;orthogonalLoop=1;jettySize=auto;html=1;entryX=0.462;entryY=0;entryDx=0;entryDy=0;entryPerimeter=0;strokeColor=default;strokeWidth=1;align=center;verticalAlign=middle;fontFamily=Helvetica;fontSize=10;fontColor=#000000;labelBackgroundColor=default;endArrow=classic;" parent="1" source="x328PwAZrwwHZPL1ipOy-60" target="x328PwAZrwwHZPL1ipOy-61" edge="1">
          <mxGeometry relative="1" as="geometry" />
        </mxCell>
        <mxCell id="x328PwAZrwwHZPL1ipOy-119" style="edgeStyle=orthogonalEdgeStyle;curved=0;rounded=0;jumpStyle=arc;jumpSize=15;orthogonalLoop=1;jettySize=auto;html=1;entryX=0.507;entryY=-0.028;entryDx=0;entryDy=0;entryPerimeter=0;strokeColor=default;strokeWidth=1;align=center;verticalAlign=middle;fontFamily=Helvetica;fontSize=10;fontColor=#000000;labelBackgroundColor=default;endArrow=classic;" parent="1" source="x328PwAZrwwHZPL1ipOy-61" target="x328PwAZrwwHZPL1ipOy-65" edge="1">
          <mxGeometry relative="1" as="geometry" />
        </mxCell>
        <mxCell id="x328PwAZrwwHZPL1ipOy-10" value="&lt;font style=&quot;font-size: 15px;&quot;&gt;&lt;font style=&quot;font-size: 15px;&quot;&gt;Objective&lt;font style=&quot;font-size: 15px;&quot;&gt; Two: Predict&amp;nbsp;&lt;/font&gt;&lt;/font&gt;&lt;span style=&quot;font-family: sans-serif; white-space: pre; font-size: 15px;&quot;&gt;&lt;font style=&quot;font-size: 15px;&quot;&gt;stock market volatility &lt;/font&gt;&lt;/span&gt;&lt;/font&gt;&lt;div&gt;&lt;span style=&quot;font-family: sans-serif; white-space: pre;&quot;&gt;using ESG-related news&lt;/span&gt;&lt;/div&gt;" style="rounded=0;whiteSpace=wrap;html=1;verticalAlign=top;fontSize=15;align=left;dashed=1;labelBackgroundColor=default;fillColor=#d5e8d4;spacingLeft=20;strokeColor=#82b366;" parent="1" vertex="1">
          <mxGeometry x="-110" y="675.87" width="410" height="684.13" as="geometry" />
        </mxCell>
        <mxCell id="x328PwAZrwwHZPL1ipOy-33" value="&lt;div style=&quot;font-size: 15px;&quot;&gt;&lt;span style=&quot;font-size: 15px;&quot;&gt;Daily market volatility&lt;/span&gt;&lt;/div&gt;&lt;div style=&quot;font-size: 15px;&quot;&gt;&lt;span style=&quot;font-size: 15px;&quot;&gt;Ttime series&lt;/span&gt;&lt;/div&gt;" style="rounded=0;whiteSpace=wrap;html=1;fontSize=15;fontColor=#000000;labelBackgroundColor=default;" parent="1" vertex="1">
          <mxGeometry x="90" y="741.28" width="170.01" height="78.5" as="geometry" />
        </mxCell>
        <mxCell id="x328PwAZrwwHZPL1ipOy-37" value="&lt;div style=&quot;font-size: 15px;&quot;&gt;&lt;font style=&quot;font-size: 15px;&quot;&gt;&lt;font style=&quot;font-size: 15px;&quot;&gt;&lt;span style=&quot;font-size: 15px; letter-spacing: 0.32px;&quot;&gt;Daily sentiment s&lt;/span&gt;&lt;/font&gt;&lt;span style=&quot;letter-spacing: 0.32px; font-size: 15px;&quot;&gt;core&lt;/span&gt;&lt;/font&gt;&lt;/div&gt;&lt;div style=&quot;font-size: 15px;&quot;&gt;&lt;span style=&quot;letter-spacing: 0.32px; font-size: 15px;&quot;&gt;&lt;font style=&quot;font-size: 15px;&quot;&gt;time series&lt;/font&gt;&lt;/span&gt;&lt;/div&gt;" style="rounded=0;whiteSpace=wrap;html=1;fontSize=15;fontColor=#000000;labelBackgroundColor=default;" parent="1" vertex="1">
          <mxGeometry x="-80" y="741.28" width="160" height="78.5" as="geometry" />
        </mxCell>
        <mxCell id="x328PwAZrwwHZPL1ipOy-38" value="&lt;span style=&quot;white-space: pre; font-size: 15px;&quot;&gt;&lt;font style=&quot;font-size: 15px;&quot; face=&quot;Helvetica&quot;&gt;Granger&#39;s casuality &lt;/font&gt;&lt;/span&gt;&lt;div style=&quot;font-size: 15px;&quot;&gt;&lt;span style=&quot;white-space: pre; font-size: 15px;&quot;&gt;&lt;font style=&quot;font-size: 15px;&quot; face=&quot;Helvetica&quot;&gt;testing&lt;/font&gt;&lt;/span&gt;&lt;/div&gt;" style="verticalLabelPosition=middle;verticalAlign=middle;html=1;shape=hexagon;perimeter=hexagonPerimeter2;arcSize=6;size=0.18181818181818185;labelPosition=center;align=center;rounded=0;fontColor=#000000;labelBackgroundColor=default;fontSize=15;" parent="1" vertex="1">
          <mxGeometry x="-20" y="872.11" width="190" height="78.5" as="geometry" />
        </mxCell>
        <mxCell id="x328PwAZrwwHZPL1ipOy-43" value="&lt;font style=&quot;font-size: 15px;&quot;&gt;Reject&amp;nbsp;&lt;/font&gt;&lt;div style=&quot;font-size: 15px;&quot;&gt;&lt;font style=&quot;font-size: 15px;&quot;&gt;null-hypothesis&lt;/font&gt;&lt;/div&gt;" style="strokeWidth=1;html=1;shape=mxgraph.flowchart.decision;whiteSpace=wrap;rounded=0;fontColor=#000000;labelBackgroundColor=default;fontSize=15;" parent="1" vertex="1">
          <mxGeometry x="-3.413461538461547" y="976.7698" width="156.3782051282051" height="117.74340000000004" as="geometry" />
        </mxCell>
        <mxCell id="x328PwAZrwwHZPL1ipOy-54" value="&lt;span style=&quot;text-align: start; white-space-collapse: preserve; font-size: 15px;&quot;&gt;&lt;font face=&quot;Helvetica&quot; style=&quot;font-size: 15px;&quot;&gt;Latent Dirichlet &lt;/font&gt;&lt;/span&gt;&lt;div style=&quot;font-size: 15px;&quot;&gt;&lt;span style=&quot;text-align: start; white-space-collapse: preserve; font-size: 15px;&quot;&gt;&lt;font face=&quot;Helvetica&quot; style=&quot;font-size: 15px;&quot;&gt;Allocation (LDA) &lt;/font&gt;&lt;/span&gt;&lt;/div&gt;" style="verticalLabelPosition=middle;verticalAlign=middle;html=1;shape=hexagon;perimeter=hexagonPerimeter2;arcSize=6;size=0.18181818181818185;labelPosition=center;align=center;rounded=0;fontColor=#000000;labelBackgroundColor=default;fontSize=15;" parent="1" vertex="1">
          <mxGeometry x="-3.413461538461547" y="1146.8436000000002" width="156.3782051282051" height="78.49560000000004" as="geometry" />
        </mxCell>
        <mxCell id="x328PwAZrwwHZPL1ipOy-57" value="&lt;font style=&quot;font-size: 15px;&quot;&gt;Classification&amp;nbsp;&lt;/font&gt;&lt;div style=&quot;font-size: 15px;&quot;&gt;&lt;font style=&quot;font-size: 15px;&quot;&gt;report&lt;/font&gt;&lt;/div&gt;" style="rounded=0;whiteSpace=wrap;html=1;verticalAlign=middle;fontSize=15;fontColor=#000000;labelBackgroundColor=default;" parent="1" vertex="1">
          <mxGeometry x="19.58333333333333" y="1264.587" width="110.38461538461537" height="52.33040000000001" as="geometry" />
        </mxCell>
        <mxCell id="x328PwAZrwwHZPL1ipOy-40" style="edgeStyle=orthogonalEdgeStyle;rounded=0;orthogonalLoop=1;jettySize=auto;html=1;entryX=0.625;entryY=0;entryDx=0;entryDy=0;exitX=0.5;exitY=1;exitDx=0;exitDy=0;fontColor=#000000;labelBackgroundColor=default;jumpStyle=arc;jumpSize=15;fontSize=15;" parent="1" source="x328PwAZrwwHZPL1ipOy-33" target="x328PwAZrwwHZPL1ipOy-38" edge="1">
          <mxGeometry relative="1" as="geometry" />
        </mxCell>
        <mxCell id="x328PwAZrwwHZPL1ipOy-69" style="edgeStyle=orthogonalEdgeStyle;orthogonalLoop=1;jettySize=auto;html=1;entryX=0.375;entryY=0;entryDx=0;entryDy=0;rounded=0;curved=0;jumpStyle=arc;jumpSize=15;fontSize=15;" parent="1" source="x328PwAZrwwHZPL1ipOy-37" target="x328PwAZrwwHZPL1ipOy-38" edge="1">
          <mxGeometry relative="1" as="geometry" />
        </mxCell>
        <mxCell id="x328PwAZrwwHZPL1ipOy-44" style="edgeStyle=orthogonalEdgeStyle;rounded=0;orthogonalLoop=1;jettySize=auto;html=1;exitX=0.5;exitY=1;exitDx=0;exitDy=0;fontColor=#000000;labelBackgroundColor=default;jumpStyle=arc;jumpSize=15;fontSize=15;" parent="1" source="x328PwAZrwwHZPL1ipOy-38" target="x328PwAZrwwHZPL1ipOy-43" edge="1">
          <mxGeometry relative="1" as="geometry" />
        </mxCell>
        <mxCell id="x328PwAZrwwHZPL1ipOy-55" value="" style="edgeStyle=orthogonalEdgeStyle;rounded=0;orthogonalLoop=1;jettySize=auto;html=1;fontColor=#000000;labelBackgroundColor=default;jumpStyle=arc;jumpSize=15;fontSize=15;" parent="1" source="x328PwAZrwwHZPL1ipOy-43" target="x328PwAZrwwHZPL1ipOy-54" edge="1">
          <mxGeometry relative="1" as="geometry">
            <mxPoint x="74.77564102564102" y="1173.0088" as="targetPoint" />
            <mxPoint x="74.77564102564102" y="1081.4306000000001" as="sourcePoint" />
          </mxGeometry>
        </mxCell>
        <mxCell id="x328PwAZrwwHZPL1ipOy-56" value="yes" style="edgeLabel;html=1;align=center;verticalAlign=middle;resizable=0;points=[];rounded=0;fontColor=#000000;labelBackgroundColor=default;fontSize=15;" parent="x328PwAZrwwHZPL1ipOy-55" vertex="1" connectable="0">
          <mxGeometry x="-0.2314" y="-1" relative="1" as="geometry">
            <mxPoint as="offset" />
          </mxGeometry>
        </mxCell>
        <mxCell id="x328PwAZrwwHZPL1ipOy-58" style="edgeStyle=orthogonalEdgeStyle;orthogonalLoop=1;jettySize=auto;html=1;exitX=0.5;exitY=1;exitDx=0;exitDy=0;fontColor=#000000;labelBackgroundColor=default;jumpStyle=arc;jumpSize=15;fontSize=15;" parent="1" source="x328PwAZrwwHZPL1ipOy-54" target="x328PwAZrwwHZPL1ipOy-57" edge="1">
          <mxGeometry relative="1" as="geometry" />
        </mxCell>
        <mxCell id="x328PwAZrwwHZPL1ipOy-114" style="edgeStyle=orthogonalEdgeStyle;curved=0;rounded=0;jumpStyle=arc;jumpSize=15;orthogonalLoop=1;jettySize=auto;html=1;strokeColor=default;strokeWidth=1;align=center;verticalAlign=middle;fontFamily=Helvetica;fontSize=10;fontColor=#000000;labelBackgroundColor=default;endArrow=classic;exitX=0.584;exitY=0.772;exitDx=0;exitDy=0;exitPerimeter=0;entryX=1;entryY=0.5;entryDx=0;entryDy=0;" parent="1" source="x328PwAZrwwHZPL1ipOy-20" target="x328PwAZrwwHZPL1ipOy-33" edge="1">
          <mxGeometry relative="1" as="geometry">
            <mxPoint x="425" y="815.87" as="targetPoint" />
            <mxPoint x="441.49999999999955" y="210.0000000000001" as="sourcePoint" />
            <Array as="points">
              <mxPoint x="439" y="120" />
              <mxPoint x="439" y="210" />
              <mxPoint x="440" y="762" />
            </Array>
          </mxGeometry>
        </mxCell>
        <mxCell id="x328PwAZrwwHZPL1ipOy-94" value="Pointers" parent="0" />
        <mxCell id="x328PwAZrwwHZPL1ipOy-107" value="&lt;font style=&quot;font-size: 15px;&quot;&gt;&lt;font style=&quot;font-size: 15px;&quot;&gt;Objective four: Detect corporate&amp;nbsp;&lt;/font&gt;&lt;font style=&quot;font-size: 15px;&quot; face=&quot;sans-serif&quot;&gt;&lt;span style=&quot;white-space: pre; font-size: 15px;&quot;&gt;greenwashing&lt;/span&gt;&lt;/font&gt;&lt;br style=&quot;font-size: 15px;&quot;&gt;&lt;/font&gt;" style="rounded=0;whiteSpace=wrap;html=1;fontSize=15;verticalAlign=top;horizontal=1;labelBackgroundColor=default;align=center;dashed=1;fillColor=#fff2cc;movable=1;resizable=1;rotatable=1;deletable=1;editable=1;locked=0;connectable=1;spacingLeft=0;strokeColor=#d6b656;" parent="x328PwAZrwwHZPL1ipOy-94" vertex="1">
          <mxGeometry x="480" y="610" width="390" height="530" as="geometry" />
        </mxCell>
        <mxCell id="x328PwAZrwwHZPL1ipOy-81" style="edgeStyle=orthogonalEdgeStyle;orthogonalLoop=1;jettySize=auto;html=1;entryX=1;entryY=0.5;entryDx=0;entryDy=0;rounded=0;curved=0;jumpStyle=arc;jumpSize=15;fontSize=15;exitX=0.395;exitY=0.928;exitDx=0;exitDy=0;exitPerimeter=0;" parent="x328PwAZrwwHZPL1ipOy-94" source="x328PwAZrwwHZPL1ipOy-20" target="x328PwAZrwwHZPL1ipOy-27" edge="1">
          <mxGeometry relative="1" as="geometry">
            <Array as="points">
              <mxPoint x="399" y="276" />
            </Array>
          </mxGeometry>
        </mxCell>
        <mxCell id="x328PwAZrwwHZPL1ipOy-83" style="edgeStyle=orthogonalEdgeStyle;orthogonalLoop=1;jettySize=auto;html=1;exitX=0.5;exitY=1;exitDx=0;exitDy=0;entryX=0.625;entryY=0;entryDx=0;entryDy=0;jumpStyle=arc;rounded=0;curved=0;jumpSize=15;fontSize=15;" parent="x328PwAZrwwHZPL1ipOy-94" source="x328PwAZrwwHZPL1ipOy-27" target="x328PwAZrwwHZPL1ipOy-30" edge="1">
          <mxGeometry relative="1" as="geometry" />
        </mxCell>
        <mxCell id="x328PwAZrwwHZPL1ipOy-82" style="edgeStyle=orthogonalEdgeStyle;orthogonalLoop=1;jettySize=auto;html=1;entryX=0.375;entryY=0;entryDx=0;entryDy=0;rounded=0;curved=0;jumpStyle=arc;jumpSize=15;fontSize=15;" parent="x328PwAZrwwHZPL1ipOy-94" source="x328PwAZrwwHZPL1ipOy-28" target="x328PwAZrwwHZPL1ipOy-30" edge="1">
          <mxGeometry relative="1" as="geometry" />
        </mxCell>
        <mxCell id="x328PwAZrwwHZPL1ipOy-84" style="edgeStyle=orthogonalEdgeStyle;orthogonalLoop=1;jettySize=auto;html=1;entryX=0.5;entryY=0;entryDx=0;entryDy=0;jumpStyle=arc;jumpSize=15;fontSize=15;" parent="x328PwAZrwwHZPL1ipOy-94" source="x328PwAZrwwHZPL1ipOy-42" target="x328PwAZrwwHZPL1ipOy-28" edge="1">
          <mxGeometry relative="1" as="geometry" />
        </mxCell>
        <mxCell id="x328PwAZrwwHZPL1ipOy-35" style="edgeStyle=orthogonalEdgeStyle;rounded=0;orthogonalLoop=1;jettySize=auto;html=1;exitX=0;exitY=0.5;exitDx=0;exitDy=0;fontColor=#000000;labelBackgroundColor=default;jumpStyle=arc;jumpSize=15;fontSize=15;entryX=0;entryY=0.5;entryDx=0;entryDy=0;" parent="x328PwAZrwwHZPL1ipOy-94" source="x328PwAZrwwHZPL1ipOy-28" target="x328PwAZrwwHZPL1ipOy-37" edge="1">
          <mxGeometry relative="1" as="geometry">
            <mxPoint x="-70" y="755.87" as="targetPoint" />
            <mxPoint x="-65.00000000000023" y="325.87" as="sourcePoint" />
            <Array as="points">
              <mxPoint x="-190" y="460" />
              <mxPoint x="-190" y="781" />
            </Array>
          </mxGeometry>
        </mxCell>
        <mxCell id="x328PwAZrwwHZPL1ipOy-79" style="edgeStyle=orthogonalEdgeStyle;orthogonalLoop=1;jettySize=auto;html=1;exitX=0.75;exitY=1;exitDx=0;exitDy=0;entryX=0.5;entryY=0;entryDx=0;entryDy=0;rounded=0;curved=0;jumpStyle=arc;jumpSize=15;fontSize=15;" parent="x328PwAZrwwHZPL1ipOy-94" source="x328PwAZrwwHZPL1ipOy-72" target="x328PwAZrwwHZPL1ipOy-7" edge="1">
          <mxGeometry relative="1" as="geometry" />
        </mxCell>
        <mxCell id="x328PwAZrwwHZPL1ipOy-80" style="edgeStyle=orthogonalEdgeStyle;orthogonalLoop=1;jettySize=auto;html=1;entryX=0.5;entryY=0;entryDx=0;entryDy=0;rounded=0;curved=0;jumpStyle=arc;jumpSize=15;fontSize=15;" parent="x328PwAZrwwHZPL1ipOy-94" source="x328PwAZrwwHZPL1ipOy-72" target="x328PwAZrwwHZPL1ipOy-76" edge="1">
          <mxGeometry relative="1" as="geometry" />
        </mxCell>
        <mxCell id="x328PwAZrwwHZPL1ipOy-78" style="edgeStyle=orthogonalEdgeStyle;orthogonalLoop=1;jettySize=auto;html=1;exitX=0.25;exitY=1;exitDx=0;exitDy=0;entryX=0.5;entryY=0;entryDx=0;entryDy=0;rounded=0;curved=0;jumpStyle=arc;jumpSize=15;fontSize=15;" parent="x328PwAZrwwHZPL1ipOy-94" source="x328PwAZrwwHZPL1ipOy-72" target="x328PwAZrwwHZPL1ipOy-20" edge="1">
          <mxGeometry relative="1" as="geometry" />
        </mxCell>
        <mxCell id="x328PwAZrwwHZPL1ipOy-77" style="edgeStyle=orthogonalEdgeStyle;orthogonalLoop=1;jettySize=auto;html=1;entryX=0.5;entryY=0;entryDx=0;entryDy=0;rounded=0;curved=0;jumpStyle=arc;jumpSize=15;fontSize=15;" parent="x328PwAZrwwHZPL1ipOy-94" source="x328PwAZrwwHZPL1ipOy-72" target="c09OnCcUlVke61fUeDF4-2" edge="1">
          <mxGeometry relative="1" as="geometry" />
        </mxCell>
        <mxCell id="x328PwAZrwwHZPL1ipOy-90" style="edgeStyle=orthogonalEdgeStyle;orthogonalLoop=1;jettySize=auto;html=1;exitX=0.843;exitY=0.724;exitDx=0;exitDy=0;exitPerimeter=0;rounded=0;curved=0;jumpStyle=arc;jumpSize=15;fontSize=15;entryX=1;entryY=0.5;entryDx=0;entryDy=0;" parent="x328PwAZrwwHZPL1ipOy-94" source="x328PwAZrwwHZPL1ipOy-7" target="x328PwAZrwwHZPL1ipOy-60" edge="1">
          <mxGeometry relative="1" as="geometry">
            <Array as="points">
              <mxPoint x="789" y="285" />
            </Array>
          </mxGeometry>
        </mxCell>
        <mxCell id="x328PwAZrwwHZPL1ipOy-101" style="edgeStyle=orthogonalEdgeStyle;orthogonalLoop=1;jettySize=auto;html=1;fontSize=15;" parent="x328PwAZrwwHZPL1ipOy-94" source="x328PwAZrwwHZPL1ipOy-96" target="x328PwAZrwwHZPL1ipOy-97" edge="1">
          <mxGeometry relative="1" as="geometry" />
        </mxCell>
        <mxCell id="x328PwAZrwwHZPL1ipOy-96" value="&lt;div style=&quot;text-align: start; font-size: 15px;&quot;&gt;&lt;span style=&quot;font-size: 15px;&quot;&gt;Text pre-processing&lt;/span&gt;&lt;/div&gt;" style="verticalLabelPosition=middle;verticalAlign=middle;html=1;shape=hexagon;perimeter=hexagonPerimeter2;arcSize=6;size=0.18181818181818185;labelPosition=center;align=center;rounded=0;fontColor=#000000;labelBackgroundColor=default;fontSize=15;" parent="x328PwAZrwwHZPL1ipOy-94" vertex="1">
          <mxGeometry x="600" y="660" width="150" height="70" as="geometry" />
        </mxCell>
        <mxCell id="x328PwAZrwwHZPL1ipOy-102" style="edgeStyle=orthogonalEdgeStyle;orthogonalLoop=1;jettySize=auto;html=1;exitX=0.375;exitY=1;exitDx=0;exitDy=0;rounded=0;curved=0;jumpSize=15;fontSize=15;" parent="x328PwAZrwwHZPL1ipOy-94" source="x328PwAZrwwHZPL1ipOy-97" target="x328PwAZrwwHZPL1ipOy-99" edge="1">
          <mxGeometry relative="1" as="geometry" />
        </mxCell>
        <mxCell id="x328PwAZrwwHZPL1ipOy-103" style="edgeStyle=orthogonalEdgeStyle;orthogonalLoop=1;jettySize=auto;html=1;entryX=0.5;entryY=0;entryDx=0;entryDy=0;rounded=0;curved=0;jumpSize=15;fontSize=15;exitX=0.625;exitY=1;exitDx=0;exitDy=0;" parent="x328PwAZrwwHZPL1ipOy-94" source="x328PwAZrwwHZPL1ipOy-97" target="x328PwAZrwwHZPL1ipOy-98" edge="1">
          <mxGeometry relative="1" as="geometry">
            <Array as="points">
              <mxPoint x="694" y="890" />
              <mxPoint x="769" y="890" />
            </Array>
          </mxGeometry>
        </mxCell>
        <mxCell id="x328PwAZrwwHZPL1ipOy-97" value="&lt;div style=&quot;text-align: start; font-size: 15px;&quot;&gt;&lt;span style=&quot;font-size: 15px;&quot;&gt;Text vectorisation&lt;/span&gt;&lt;/div&gt;" style="verticalLabelPosition=middle;verticalAlign=middle;html=1;shape=hexagon;perimeter=hexagonPerimeter2;arcSize=6;size=0.18181818181818185;labelPosition=center;align=center;rounded=0;fontColor=#000000;labelBackgroundColor=default;fontSize=15;" parent="x328PwAZrwwHZPL1ipOy-94" vertex="1">
          <mxGeometry x="600" y="780" width="150" height="70" as="geometry" />
        </mxCell>
        <mxCell id="x328PwAZrwwHZPL1ipOy-98" value="&lt;div style=&quot;text-align: start; font-size: 15px;&quot;&gt;&lt;span style=&quot;font-size: 15px;&quot;&gt;Sentiment Analysis&lt;/span&gt;&lt;/div&gt;" style="verticalLabelPosition=middle;verticalAlign=middle;html=1;shape=hexagon;perimeter=hexagonPerimeter2;arcSize=6;size=0.18181818181818185;labelPosition=center;align=center;rounded=0;fontColor=#000000;labelBackgroundColor=default;fontSize=15;" parent="x328PwAZrwwHZPL1ipOy-94" vertex="1">
          <mxGeometry x="693.5" y="930" width="150" height="70" as="geometry" />
        </mxCell>
        <mxCell id="x328PwAZrwwHZPL1ipOy-106" style="edgeStyle=orthogonalEdgeStyle;curved=0;rounded=0;jumpStyle=arc;jumpSize=15;orthogonalLoop=1;jettySize=auto;html=1;entryX=0.25;entryY=0;entryDx=0;entryDy=0;strokeColor=default;strokeWidth=1;align=center;verticalAlign=middle;fontFamily=Helvetica;fontSize=15;fontColor=default;labelBackgroundColor=default;endArrow=classic;" parent="x328PwAZrwwHZPL1ipOy-94" source="x328PwAZrwwHZPL1ipOy-99" edge="1">
          <mxGeometry relative="1" as="geometry">
            <mxPoint x="643" y="1050" as="targetPoint" />
          </mxGeometry>
        </mxCell>
        <mxCell id="x328PwAZrwwHZPL1ipOy-99" value="&lt;div style=&quot;text-align: start; font-size: 15px;&quot;&gt;&lt;span style=&quot;font-size: 15px;&quot;&gt;Thematic analysis&lt;/span&gt;&lt;/div&gt;" style="verticalLabelPosition=middle;verticalAlign=middle;html=1;shape=hexagon;perimeter=hexagonPerimeter2;arcSize=6;size=0.18181818181818185;labelPosition=center;align=center;rounded=0;fontColor=#000000;labelBackgroundColor=default;fontSize=15;" parent="x328PwAZrwwHZPL1ipOy-94" vertex="1">
          <mxGeometry x="506.5" y="930" width="150" height="70" as="geometry" />
        </mxCell>
        <mxCell id="x328PwAZrwwHZPL1ipOy-105" style="edgeStyle=orthogonalEdgeStyle;orthogonalLoop=1;jettySize=auto;html=1;exitX=0.5;exitY=1;exitDx=0;exitDy=0;entryX=0.75;entryY=0;entryDx=0;entryDy=0;rounded=0;curved=0;strokeWidth=1;jumpStyle=arc;jumpSize=15;fontSize=15;" parent="x328PwAZrwwHZPL1ipOy-94" source="x328PwAZrwwHZPL1ipOy-98" edge="1">
          <mxGeometry relative="1" as="geometry">
            <mxPoint x="703" y="1050" as="targetPoint" />
          </mxGeometry>
        </mxCell>
        <mxCell id="x328PwAZrwwHZPL1ipOy-111" style="edgeStyle=orthogonalEdgeStyle;curved=0;rounded=0;jumpStyle=arc;jumpSize=15;orthogonalLoop=1;jettySize=auto;html=1;exitX=0.5;exitY=1;exitDx=0;exitDy=0;strokeColor=default;strokeWidth=1;align=center;verticalAlign=middle;fontFamily=Helvetica;fontSize=15;fontColor=#000000;labelBackgroundColor=default;endArrow=classic;" parent="x328PwAZrwwHZPL1ipOy-94" source="x328PwAZrwwHZPL1ipOy-107" target="x328PwAZrwwHZPL1ipOy-107" edge="1">
          <mxGeometry relative="1" as="geometry" />
        </mxCell>
        <mxCell id="x328PwAZrwwHZPL1ipOy-112" value="&lt;p style=&quot;text-align: start; line-height: 0%; font-size: 15px;&quot;&gt;&lt;span style=&quot;white-space-collapse: preserve; background-color: rgb(255, 255, 255); font-size: 15px;&quot;&gt;Visualisation&lt;/span&gt;&lt;/p&gt;" style="verticalLabelPosition=middle;verticalAlign=middle;html=1;shape=mxgraph.basic.rect;fillColor2=none;strokeWidth=1;size=20;indent=5;fontSize=15;labelPosition=center;align=center;" parent="x328PwAZrwwHZPL1ipOy-94" vertex="1">
          <mxGeometry x="603" y="1050" width="160" height="60" as="geometry" />
        </mxCell>
        <mxCell id="x328PwAZrwwHZPL1ipOy-115" style="edgeStyle=orthogonalEdgeStyle;curved=0;rounded=0;jumpStyle=arc;jumpSize=15;orthogonalLoop=1;jettySize=auto;html=1;entryX=1;entryY=0.5;entryDx=0;entryDy=0;strokeColor=default;strokeWidth=1;align=center;verticalAlign=middle;fontFamily=Helvetica;fontSize=10;fontColor=#000000;labelBackgroundColor=default;endArrow=classic;exitX=0.427;exitY=0.913;exitDx=0;exitDy=0;exitPerimeter=0;" parent="x328PwAZrwwHZPL1ipOy-94" source="x328PwAZrwwHZPL1ipOy-76" target="x328PwAZrwwHZPL1ipOy-96" edge="1">
          <mxGeometry relative="1" as="geometry">
            <Array as="points">
              <mxPoint x="921" y="695" />
            </Array>
          </mxGeometry>
        </mxCell>
        <mxCell id="x328PwAZrwwHZPL1ipOy-95" value="Shapes" parent="0" />
      </root>
    </mxGraphModel>
  </diagram>
</mxfile>
